<svg xmlns="http://www.w3.org/2000/svg" width="696.6465454101562" height="569.5130004882812" viewBox="-292.09100341796875 -264.0102233886719 696.6465454101562 569.5130004882812"><title>Neo4j Graph Visualization</title><desc>Created using Neo4j (http://www.neo4j.com/)</desc><g class="layer relationships"><g class="relationship" transform="translate(-35.76233778288659 -235.01021491860445) rotate(402.0090656719664)"><path class="b-outline" fill="#A5ABB6" stroke="none" d="M 25 0.5 L 48.402974199813656 0.5 L 48.402974199813656 -0.5 L 25 -0.5 Z M 84.23109919981366 0.5 L 107.63407339962731 0.5 L 107.63407339962731 3.5 L 114.63407339962731 0 L 107.63407339962731 -3.5 L 107.63407339962731 -0.5 L 84.23109919981366 -0.5 Z"/><text text-anchor="middle" pointer-events="none" font-size="8px" fill="#000000" x="66.31703669981366" y="3" font-family="Helvetica Neue, Helvetica, Arial, sans-serif">Contain</text></g><g class="relationship" transform="translate(67.99121644363065 -141.5603650549602) rotate(385.4740032396794)"><path class="b-outline" fill="#A5ABB6" stroke="none" d="M 25 0.5 L 63.703412689200775 0.5 L 63.703412689200775 -0.5 L 25 -0.5 Z M 99.53153768920077 0.5 L 138.23495037840155 0.5 L 138.23495037840155 3.5 L 145.23495037840155 0 L 138.23495037840155 -3.5 L 138.23495037840155 -0.5 L 99.53153768920077 -0.5 Z"/><text text-anchor="middle" pointer-events="none" font-size="8px" fill="#000000" x="81.61747518920077" y="3" font-family="Helvetica Neue, Helvetica, Arial, sans-serif">Contain</text></g><g class="relationship" transform="translate(67.99121644363065 -141.5603650549602) rotate(469.0236162488021)"><path class="b-outline" fill="#A5ABB6" stroke="none" d="M 25 0.5 L 58.11776155118402 0.5 L 58.11776155118402 -0.5 L 25 -0.5 Z M 93.94588655118402 0.5 L 127.06364810236803 0.5 L 127.06364810236803 3.5 L 134.06364810236803 0 L 127.06364810236803 -3.5 L 127.06364810236803 -0.5 L 93.94588655118402 -0.5 Z"/><text text-anchor="middle" pointer-events="none" font-size="8px" fill="#000000" x="76.03182405118402" y="3" transform="rotate(180 76.03182405118402 0)" font-family="Helvetica Neue, Helvetica, Arial, sans-serif">Contain</text></g><g class="relationship" transform="translate(67.99121644363065 -141.5603650549602) rotate(526.4977862292815)"><path class="b-outline" fill="#A5ABB6" stroke="none" d="M 25 0.5 L 59.75554955444983 0.5 L 59.75554955444983 -0.5 L 25 -0.5 Z M 95.58367455444983 0.5 L 130.33922410889966 0.5 L 130.33922410889966 3.5 L 137.33922410889966 0 L 130.33922410889966 -3.5 L 130.33922410889966 -0.5 L 95.58367455444983 -0.5 Z"/><text text-anchor="middle" pointer-events="none" font-size="8px" fill="#000000" x="77.66961205444983" y="3" transform="rotate(180 77.66961205444983 0)" font-family="Helvetica Neue, Helvetica, Arial, sans-serif">Contain</text></g><g class="relationship" transform="translate(-89.86109760095712 -103.65692675381945) rotate(210.72060001118336)"><path class="b-outline" fill="#A5ABB6" stroke="none" d="M 25 0.5 L 42.30473912888808 0.5 L 42.30473912888808 -0.5 L 25 -0.5 Z M 78.13286412888809 0.5 L 95.43760325777616 0.5 L 95.43760325777616 3.5 L 102.43760325777616 0 L 95.43760325777616 -3.5 L 95.43760325777616 -0.5 L 78.13286412888809 -0.5 Z"/><text text-anchor="middle" pointer-events="none" font-size="8px" fill="#000000" x="60.21880162888808" y="3" transform="rotate(180 60.21880162888808 0)" font-family="Helvetica Neue, Helvetica, Arial, sans-serif">Contain</text></g><g class="relationship" transform="translate(16.143171398454058 8.81591090846203) rotate(405.46387905247207)"><path class="b-outline" fill="#A5ABB6" stroke="none" d="M 25 0.5 L 83.26818745041693 0.5 L 83.26818745041693 -0.5 L 25 -0.5 Z M 119.09631245041693 0.5 L 177.36449990083386 0.5 L 177.36449990083386 3.5 L 184.36449990083386 0 L 177.36449990083386 -3.5 L 177.36449990083386 -0.5 L 119.09631245041693 -0.5 Z"/><text text-anchor="middle" pointer-events="none" font-size="8px" fill="#000000" x="101.18224995041693" y="3" font-family="Helvetica Neue, Helvetica, Arial, sans-serif">Contain</text></g><g class="relationship" transform="translate(221.6760146314367 -68.34205357272126) rotate(460.69934495538)"><path class="b-outline" fill="#A5ABB6" stroke="none" d="M 25 0.5 L 50.068030711837196 0.5 L 50.068030711837196 -0.5 L 25 -0.5 Z M 85.8961557118372 0.5 L 110.96418642367439 0.5 L 110.96418642367439 3.5 L 117.96418642367439 0 L 110.96418642367439 -3.5 L 110.96418642367439 -0.5 L 85.8961557118372 -0.5 Z"/><text text-anchor="middle" pointer-events="none" font-size="8px" fill="#000000" x="67.9820932118372" y="3" transform="rotate(180 67.9820932118372 0)" font-family="Helvetica Neue, Helvetica, Arial, sans-serif">Contain</text></g><g class="relationship" transform="translate(162.98280143218045 158.05269213308043) rotate(456.61867984740843)"><path class="b-outline" fill="#A5ABB6" stroke="none" d="M 25 0.5 L 38.20831825778098 0.5 L 38.20831825778098 -0.5 L 25 -0.5 Z M 74.03644325778097 0.5 L 87.24476151556196 0.5 L 87.24476151556196 3.5 L 94.24476151556196 0 L 87.24476151556196 -3.5 L 87.24476151556196 -0.5 L 74.03644325778097 -0.5 Z"/><text text-anchor="middle" pointer-events="none" font-size="8px" fill="#000000" x="56.12238075778098" y="3" transform="rotate(180 56.12238075778098 0)" font-family="Helvetica Neue, Helvetica, Arial, sans-serif">Contain</text></g><g class="relationship" transform="translate(-199.41521077285626 -168.758685648684) rotate(476.3043533162992)"><path class="b-outline" fill="#A5ABB6" stroke="none" d="M 25 0.5 L 50.43217248352214 0.5 L 50.43217248352214 -0.5 L 25 -0.5 Z M 86.26029748352214 0.5 L 111.69246996704427 0.5 L 111.69246996704427 3.5 L 118.69246996704427 0 L 111.69246996704427 -3.5 L 111.69246996704427 -0.5 L 86.26029748352214 -0.5 Z"/><text text-anchor="middle" pointer-events="none" font-size="8px" fill="#000000" x="68.34623498352214" y="3" transform="rotate(180 68.34623498352214 0)" font-family="Helvetica Neue, Helvetica, Arial, sans-serif">Contain</text></g><g class="relationship" transform="translate(221.6760146314367 -68.34205357272126) rotate(519.4236361724527)"><path class="b-outline" fill="#A5ABB6" stroke="none" d="M 25 0.5 L 94.23012845346535 0.5 L 94.23012845346535 -0.5 L 25 -0.5 Z M 118.30825345346535 0.5 L 187.5383819069307 0.5 L 187.5383819069307 3.5 L 194.5383819069307 0 L 187.5383819069307 -3.5 L 187.5383819069307 -0.5 L 118.30825345346535 -0.5 Z"/><text text-anchor="middle" pointer-events="none" font-size="8px" fill="#000000" x="106.26919095346535" y="3" transform="rotate(180 106.26919095346535 0)" font-family="Helvetica Neue, Helvetica, Arial, sans-serif">Next</text></g><g class="relationship" transform="translate(16.143171398454058 8.81591090846203) rotate(226.69589139129)"><path class="b-outline" fill="#A5ABB6" stroke="none" d="M 25 0.5 L 61.73810789641374 0.5 L 61.73810789641374 -0.5 L 25 -0.5 Z M 85.81623289641374 0.5 L 122.55434079282747 0.5 L 122.55434079282747 3.5 L 129.55434079282747 0 L 122.55434079282747 -3.5 L 122.55434079282747 -0.5 L 85.81623289641374 -0.5 Z"/><text text-anchor="middle" pointer-events="none" font-size="8px" fill="#000000" x="73.77717039641374" y="3" transform="rotate(180 73.77717039641374 0)" font-family="Helvetica Neue, Helvetica, Arial, sans-serif">Next</text></g><g class="relationship" transform="translate(221.6760146314367 -68.34205357272126) rotate(278.8696840515968)"><path class="b-outline" fill="#A5ABB6" stroke="none" d="M 25 0.5 L 56.57883701428659 0.5 L 56.57883701428659 -0.5 L 25 -0.5 Z M 92.40696201428659 0.5 L 123.98579902857318 0.5 L 123.98579902857318 3.5 L 130.98579902857318 0 L 123.98579902857318 -3.5 L 123.98579902857318 -0.5 L 92.40696201428659 -0.5 Z"/><text text-anchor="middle" pointer-events="none" font-size="8px" fill="#000000" x="74.49289951428659" y="3" font-family="Helvetica Neue, Helvetica, Arial, sans-serif">Contain</text></g><g class="relationship" transform="translate(221.6760146314367 -68.34205357272126) rotate(332.35622786592603)"><path class="b-outline" fill="#A5ABB6" stroke="none" d="M 25 0.5 L 64.39706803125641 0.5 L 64.39706803125641 -0.5 L 25 -0.5 Z M 100.22519303125641 0.5 L 139.62226106251282 0.5 L 139.62226106251282 3.5 L 146.62226106251282 0 L 139.62226106251282 -3.5 L 139.62226106251282 -0.5 L 100.22519303125641 -0.5 Z"/><text text-anchor="middle" pointer-events="none" font-size="8px" fill="#000000" x="82.31113053125641" y="3" font-family="Helvetica Neue, Helvetica, Arial, sans-serif">Contain</text></g><g class="relationship" transform="translate(221.6760146314367 -68.34205357272126) rotate(377.3790946410586)"><path class="b-outline" fill="#A5ABB6" stroke="none" d="M 25 0.5 L 59.20603807079901 0.5 L 59.20603807079901 -0.5 L 25 -0.5 Z M 95.03416307079901 0.5 L 129.24020114159802 0.5 L 129.24020114159802 3.5 L 136.24020114159802 0 L 129.24020114159802 -3.5 L 129.24020114159802 -0.5 L 95.03416307079901 -0.5 Z"/><text text-anchor="middle" pointer-events="none" font-size="8px" fill="#000000" x="77.12010057079901" y="3" font-family="Helvetica Neue, Helvetica, Arial, sans-serif">Contain</text></g><g class="relationship" transform="translate(221.6760146314367 -68.34205357272126) rotate(419.41691365020534)"><path class="b-outline" fill="#A5ABB6" stroke="none" d="M 25 0.5 L 77.74382153757333 0.5 L 77.74382153757333 -0.5 L 25 -0.5 Z M 113.57194653757333 0.5 L 166.31576807514665 0.5 L 166.31576807514665 3.5 L 173.31576807514665 0 L 166.31576807514665 -3.5 L 166.31576807514665 -0.5 L 113.57194653757333 -0.5 Z"/><text text-anchor="middle" pointer-events="none" font-size="8px" fill="#000000" x="95.65788403757333" y="3" font-family="Helvetica Neue, Helvetica, Arial, sans-serif">Contain</text></g><g class="relationship" transform="translate(16.143171398454058 8.81591090846203) rotate(452.4416427732657)"><path class="b-outline" fill="#A5ABB6" stroke="none" d="M 25 0.5 L 80.13594584668168 0.5 L 80.13594584668168 -0.5 L 25 -0.5 Z M 115.96407084668168 0.5 L 171.10001669336336 0.5 L 171.10001669336336 3.5 L 178.10001669336336 0 L 171.10001669336336 -3.5 L 171.10001669336336 -0.5 L 115.96407084668168 -0.5 Z"/><text text-anchor="middle" pointer-events="none" font-size="8px" fill="#000000" x="98.05000834668168" y="3" transform="rotate(180 98.05000834668168 0)" font-family="Helvetica Neue, Helvetica, Arial, sans-serif">Contain</text></g><g class="relationship" transform="translate(16.143171398454058 8.81591090846203) rotate(481.39238068442114)"><path class="b-outline" fill="#A5ABB6" stroke="none" d="M 25 0.5 L 105.32967126929466 0.5 L 105.32967126929466 -0.5 L 25 -0.5 Z M 141.15779626929466 0.5 L 221.48746753858933 0.5 L 221.48746753858933 3.5 L 228.48746753858933 0 L 221.48746753858933 -3.5 L 221.48746753858933 -0.5 L 141.15779626929466 -0.5 Z"/><text text-anchor="middle" pointer-events="none" font-size="8px" fill="#000000" x="123.24373376929466" y="3" transform="rotate(180 123.24373376929466 0)" font-family="Helvetica Neue, Helvetica, Arial, sans-serif">Contain</text></g><g class="relationship" transform="translate(16.143171398454058 8.81591090846203) rotate(512.2513940774516)"><path class="b-outline" fill="#A5ABB6" stroke="none" d="M 25 0.5 L 100.60725481856723 0.5 L 100.60725481856723 -0.5 L 25 -0.5 Z M 136.43537981856724 0.5 L 212.04263463713446 0.5 L 212.04263463713446 3.5 L 219.04263463713446 0 L 212.04263463713446 -3.5 L 212.04263463713446 -0.5 L 136.43537981856724 -0.5 Z"/><text text-anchor="middle" pointer-events="none" font-size="8px" fill="#000000" x="118.52131731856723" y="3" transform="rotate(180 118.52131731856723 0)" font-family="Helvetica Neue, Helvetica, Arial, sans-serif">Contain</text></g><g class="relationship" transform="translate(16.143171398454058 8.81591090846203) rotate(532.9512592292565)"><path class="b-outline" fill="#A5ABB6" stroke="none" d="M 25 0.5 L 70.18727742081497 0.5 L 70.18727742081497 -0.5 L 25 -0.5 Z M 106.01540242081497 0.5 L 151.20267984162993 0.5 L 151.20267984162993 3.5 L 158.20267984162993 0 L 151.20267984162993 -3.5 L 151.20267984162993 -0.5 L 106.01540242081497 -0.5 Z"/><text text-anchor="middle" pointer-events="none" font-size="8px" fill="#000000" x="88.10133992081497" y="3" transform="rotate(180 88.10133992081497 0)" font-family="Helvetica Neue, Helvetica, Arial, sans-serif">Contain</text></g><g class="relationship" transform="translate(195.13394406432917 72.13668891095065) rotate(373.3526198524724)"><path class="b-outline" fill="#A5ABB6" stroke="none" d="M 25 0.5 L 49.952671001252355 0.5 L 49.952671001252355 -0.5 L 25 -0.5 Z M 74.03079600125236 0.5 L 98.98346700250471 0.5 L 98.98346700250471 3.5 L 105.98346700250471 0 L 98.98346700250471 -3.5 L 98.98346700250471 -0.5 L 74.03079600125236 -0.5 Z"/><text text-anchor="middle" pointer-events="none" font-size="8px" fill="#000000" x="61.991733501252355" y="3" font-family="Helvetica Neue, Helvetica, Arial, sans-serif">Next</text></g><g class="relationship" transform="translate(322.57655950958366 102.38645579384121) rotate(293.37611705255864)"><path class="b-outline" fill="#A5ABB6" stroke="none" d="M 25 0.5 L 51.224512782310626 0.5 L 51.224512782310626 -0.5 L 25 -0.5 Z M 75.30263778231063 0.5 L 101.52715056462125 0.5 L 101.52715056462125 3.5 L 108.52715056462125 0 L 101.52715056462125 -3.5 L 101.52715056462125 -0.5 L 75.30263778231063 -0.5 Z"/><text text-anchor="middle" pointer-events="none" font-size="8px" fill="#000000" x="63.263575282310626" y="3" font-family="Helvetica Neue, Helvetica, Arial, sans-serif">Next</text></g><g class="relationship" transform="translate(375.5554998505563 -20.18079847194828) rotate(269.1714808485763)"><path class="b-outline" fill="#A5ABB6" stroke="none" d="M 25 0.5 L 48.362287646341805 0.5 L 48.362287646341805 -0.5 L 25 -0.5 Z M 72.4404126463418 0.5 L 95.80270029268361 0.5 L 95.80270029268361 3.5 L 102.80270029268361 0 L 95.80270029268361 -3.5 L 95.80270029268361 -0.5 L 72.4404126463418 -0.5 Z"/><text text-anchor="middle" pointer-events="none" font-size="8px" fill="#000000" x="60.401350146341805" y="3" transform="rotate(180 60.401350146341805 0)" font-family="Helvetica Neue, Helvetica, Arial, sans-serif">Next</text></g><g class="relationship" transform="translate(373.70748773650865 -147.97013704652517) rotate(210.20200814036133)"><path class="b-outline" fill="#A5ABB6" stroke="none" d="M 25 0.5 L 58.50162696272034 0.5 L 58.50162696272034 -0.5 L 25 -0.5 Z M 82.57975196272034 0.5 L 116.08137892544067 0.5 L 116.08137892544067 3.5 L 123.08137892544067 0 L 116.08137892544067 -3.5 L 116.08137892544067 -0.5 L 82.57975196272034 -0.5 Z"/><text text-anchor="middle" pointer-events="none" font-size="8px" fill="#000000" x="70.54068946272034" y="3" transform="rotate(180 70.54068946272034 0)" font-family="Helvetica Neue, Helvetica, Arial, sans-serif">Next</text></g><g class="relationship" transform="translate(162.98280143218045 158.05269213308043) rotate(520.9543419328465)"><path class="b-outline" fill="#A5ABB6" stroke="none" d="M 25 0.5 L 66.70933985769332 0.5 L 66.70933985769332 -0.5 L 25 -0.5 Z M 90.78746485769332 0.5 L 132.49680471538665 0.5 L 132.49680471538665 3.5 L 139.49680471538665 0 L 132.49680471538665 -3.5 L 132.49680471538665 -0.5 L 90.78746485769332 -0.5 Z"/><text text-anchor="middle" pointer-events="none" font-size="8px" fill="#000000" x="78.74840235769332" y="3" transform="rotate(180 78.74840235769332 0)" font-family="Helvetica Neue, Helvetica, Arial, sans-serif">Next</text></g><g class="relationship" transform="translate(7.490743365096492 211.73153936022038) rotate(533.7714953810553)"><path class="b-outline" fill="#A5ABB6" stroke="none" d="M 25 0.5 L 46.52137854043807 0.5 L 46.52137854043807 -0.5 L 25 -0.5 Z M 70.59950354043806 0.5 L 92.12088208087614 0.5 L 92.12088208087614 3.5 L 99.12088208087614 0 L 92.12088208087614 -3.5 L 92.12088208087614 -0.5 L 70.59950354043806 -0.5 Z"/><text text-anchor="middle" pointer-events="none" font-size="8px" fill="#000000" x="58.56044104043807" y="3" transform="rotate(180 58.56044104043807 0)" font-family="Helvetica Neue, Helvetica, Arial, sans-serif">Next</text></g><g class="relationship" transform="translate(-115.89746696663457 225.1979018856856) rotate(230.75652707987842)"><path class="b-outline" fill="#A5ABB6" stroke="none" d="M 25 0.5 L 50.80188856205133 0.5 L 50.80188856205133 -0.5 L 25 -0.5 Z M 74.88001356205133 0.5 L 100.68190212410266 0.5 L 100.68190212410266 3.5 L 107.68190212410266 0 L 100.68190212410266 -3.5 L 100.68190212410266 -0.5 L 74.88001356205133 -0.5 Z"/><text text-anchor="middle" pointer-events="none" font-size="8px" fill="#000000" x="62.84095106205133" y="3" transform="rotate(180 62.84095106205133 0)" font-family="Helvetica Neue, Helvetica, Arial, sans-serif">Next</text></g><g class="relationship" transform="translate(-199.83430795936235 122.44045020732074) rotate(290.5454472648688)"><path class="b-outline" fill="#A5ABB6" stroke="none" d="M 25 0.5 L 33.12798367333175 0.5 L 33.12798367333175 -0.5 L 25 -0.5 Z M 57.20610867333175 0.5 L 65.3340923466635 0.5 L 65.3340923466635 3.5 L 72.3340923466635 0 L 65.3340923466635 -3.5 L 65.3340923466635 -0.5 L 57.20610867333175 -0.5 Z"/><text text-anchor="middle" pointer-events="none" font-size="8px" fill="#000000" x="45.16704617333175" y="3" font-family="Helvetica Neue, Helvetica, Arial, sans-serif">Next</text></g></g><g class="layer nodes"><g class="node" aria-label="graph-node0" transform="translate(162.98280143218045,158.05269213308043)"><circle class="b-outline" cx="0" cy="0" r="25" fill="#57C7E3" stroke="#23b3d7" stroke-width="2px"/><text class="caption" text-anchor="middle" pointer-events="none" x="0" y="5" font-size="10px" fill="#2A2C34" font-family="Helvetica Neue, Helvetica, Arial, sans-serif"> 接通电源…</text></g><g class="node" aria-label="graph-node1" transform="translate(-199.41521077285626,-168.758685648684)"><circle class="b-outline" cx="0" cy="0" r="25" fill="#57C7E3" stroke="#23b3d7" stroke-width="2px"/><text class="caption" text-anchor="middle" pointer-events="none" x="0" y="5" font-size="10px" fill="#2A2C34" font-family="Helvetica Neue, Helvetica, Arial, sans-serif"> 使用之前…</text></g><g class="node" aria-label="graph-node2" transform="translate(149.23852995241188,276.5027159844654)"><circle class="b-outline" cx="0" cy="0" r="25" fill="#569480" stroke="#447666" stroke-width="2px"/><text class="caption" text-anchor="middle" pointer-events="none" x="0" y="5" font-size="10px" fill="#FFFFFF" font-family="Helvetica Neue, Helvetica, Arial, sans-serif"> 图像1</text></g><g class="node" aria-label="graph-node3" transform="translate(-263.0909919497521,-39.94517387005885)"><circle class="b-outline" cx="0" cy="0" r="25" fill="#569480" stroke="#447666" stroke-width="2px"/><text class="caption" text-anchor="middle" pointer-events="none" x="0" y="5" font-size="10px" fill="#FFFFFF" font-family="Helvetica Neue, Helvetica, Arial, sans-serif"> 图像2</text></g><g class="node" aria-label="graph-node4" transform="translate(322.57655950958366,102.38645579384121)"><circle class="b-outline" cx="0" cy="0" r="25" fill="#57C7E3" stroke="#23b3d7" stroke-width="2px"/><text class="caption" text-anchor="middle" pointer-events="none" x="0" y="5" font-size="10px" fill="#2A2C34" font-family="Helvetica Neue, Helvetica, Arial, sans-serif"> 2.干衣护…</text></g><g class="node" aria-label="graph-node5" transform="translate(375.5554998505563,-20.18079847194828)"><circle class="b-outline" cx="0" cy="0" r="25" fill="#57C7E3" stroke="#23b3d7" stroke-width="2px"/><text class="caption" text-anchor="middle" pointer-events="none" x="0" y="5" font-size="10px" fill="#2A2C34" font-family="Helvetica Neue, Helvetica, Arial, sans-serif"> 3.干衣护…</text></g><g class="node" aria-label="graph-node6" transform="translate(373.70748773650865,-147.97013704652517)"><circle class="b-outline" cx="0" cy="0" r="25" fill="#57C7E3" stroke="#23b3d7" stroke-width="2px"/><text class="caption" text-anchor="middle" pointer-events="none" x="0" y="5" font-size="10px" fill="#2A2C34" font-family="Helvetica Neue, Helvetica, Arial, sans-serif"> 4.为了干…</text></g><g class="node" aria-label="graph-node7" transform="translate(245.72709407202146,-222.46250995773556)"><circle class="b-outline" cx="0" cy="0" r="25" fill="#57C7E3" stroke="#23b3d7" stroke-width="2px"/><text class="caption" text-anchor="middle" pointer-events="none" x="0" y="5" font-size="10px" fill="#2A2C34" font-family="Helvetica Neue, Helvetica, Arial, sans-serif"> 5.干衣护…</text></g><g class="node" aria-label="graph-node8" transform="translate(7.490743365096492,211.73153936022038)"><circle class="b-outline" cx="0" cy="0" r="25" fill="#57C7E3" stroke="#23b3d7" stroke-width="2px"/><text class="caption" text-anchor="middle" pointer-events="none" x="0" y="5" font-size="10px" fill="#2A2C34" font-family="Helvetica Neue, Helvetica, Arial, sans-serif"> 1.电源插…</text></g><g class="node" aria-label="graph-node9" transform="translate(-115.89746696663457,225.1979018856856)"><circle class="b-outline" cx="0" cy="0" r="25" fill="#57C7E3" stroke="#23b3d7" stroke-width="2px"/><text class="caption" text-anchor="middle" pointer-events="none" x="0" y="5" font-size="10px" fill="#2A2C34" font-family="Helvetica Neue, Helvetica, Arial, sans-serif"> 2.电压…</text></g><g class="node" aria-label="graph-node10" transform="translate(-199.83430795936235,122.44045020732074)"><circle class="b-outline" cx="0" cy="0" r="25" fill="#57C7E3" stroke="#23b3d7" stroke-width="2px"/><text class="caption" text-anchor="middle" pointer-events="none" x="0" y="5" font-size="10px" fill="#2A2C34" font-family="Helvetica Neue, Helvetica, Arial, sans-serif"> 3.电源…</text></g><g class="node" aria-label="graph-node11" transform="translate(-165.6748845474677,31.29737957046035)"><circle class="b-outline" cx="0" cy="0" r="25" fill="#57C7E3" stroke="#23b3d7" stroke-width="2px"/><text class="caption" text-anchor="middle" pointer-events="none" x="0" y="5" font-size="10px" fill="#2A2C34" font-family="Helvetica Neue, Helvetica, Arial, sans-serif"> 4.干衣护…</text></g><g class="node" aria-label="graph-node90" transform="translate(-35.76233778288659,-235.01021491860445)"><circle class="b-outline" cx="0" cy="0" r="25" fill="#DA7194" stroke="#cc3c6c" stroke-width="2px"/><text class="caption" text-anchor="middle" pointer-events="none" x="0" y="5" font-size="10px" fill="#FFFFFF" font-family="Helvetica Neue, Helvetica, Arial, sans-serif"> 干衣护…</text></g><g class="node" aria-label="graph-node91" transform="translate(67.99121644363065,-141.5603650549602)"><circle class="b-outline" cx="0" cy="0" r="25" fill="#4C8EDA" stroke="#2870c2" stroke-width="2px"/><text class="caption" text-anchor="middle" pointer-events="none" x="0" y="5" font-size="10px" fill="#FFFFFF" font-family="Helvetica Neue, Helvetica, Arial, sans-serif"> 安装步骤</text></g><g class="node" aria-label="graph-node92" transform="translate(221.6760146314367,-68.34205357272126)"><circle class="b-outline" cx="0" cy="0" r="25" fill="#FFC454" stroke="#d7a013" stroke-width="2px"/><text class="caption" text-anchor="middle" pointer-events="none" x="0" y="5" font-size="10px" fill="#2A2C34" font-family="Helvetica Neue, Helvetica, Arial, sans-serif"> 注意事项</text></g><g class="node" aria-label="graph-node93" transform="translate(16.143171398454058,8.81591090846203)"><circle class="b-outline" cx="0" cy="0" r="25" fill="#FFC454" stroke="#d7a013" stroke-width="2px"/><text class="caption" text-anchor="middle" pointer-events="none" x="0" y="5" font-size="10px" fill="#2A2C34" font-family="Helvetica Neue, Helvetica, Arial, sans-serif"> 连接电源</text></g><g class="node" aria-label="graph-node94" transform="translate(-89.86109760095712,-103.65692675381945)"><circle class="b-outline" cx="0" cy="0" r="25" fill="#FFC454" stroke="#d7a013" stroke-width="2px"/><text class="caption" text-anchor="middle" pointer-events="none" x="0" y="5" font-size="10px" fill="#2A2C34" font-family="Helvetica Neue, Helvetica, Arial, sans-serif"> 调整底脚</text></g><g class="node" aria-label="graph-node95" transform="translate(195.13394406432917,72.13668891095065)"><circle class="b-outline" cx="0" cy="0" r="25" fill="#57C7E3" stroke="#23b3d7" stroke-width="2px"/><text class="caption" text-anchor="middle" pointer-events="none" x="0" y="5" font-size="10px" fill="#2A2C34" font-family="Helvetica Neue, Helvetica, Arial, sans-serif"> 1.检查干…</text></g></g></svg>